<svg xmlns="http://www.w3.org/2000/svg" width="161" height="179" viewBox="0 0 161 179">
  <g id="Logo" transform="translate(-166.896 -392.692)">
    <g id="suitcase-svgrepo-com" transform="translate(216.994 435.469)">
      <path id="Caminho_7" data-name="Caminho 7" d="M61.81,55.6V48.584a4.474,4.474,0,0,0-4.493-4.444H39.112a4.474,4.474,0,0,0-4.493,4.444V55.6H0v66.378H96.429V55.6Zm14.519,45.051L65.358,95.87l8.164-18.328,10.971,4.781ZM71.466,72.3l-11.4,25.6,15.032,6.551v13.549H21.335V59.575H75.094V73.884ZM38.636,48.584a.473.473,0,0,1,.475-.47H57.317a.473.473,0,0,1,.475.47V55.6H38.636V48.584ZM4.018,59.575h13.3v58.43H4.018Zm88.393,58.43h-13.3V104.262L89.79,80.289,79.112,75.635V59.575h13.3Z" transform="translate(0 -44.14)"/>
      <path id="Caminho_8" data-name="Caminho 8" d="M128.972,218.323l20.722,8.954,5.823-13.475-20.722-8.954Zm21.21-2.405-2.6,6.024-13.271-5.735,2.6-6.024Z" transform="translate(-96.156 -177.143)"/>
    </g>
    <g id="location-svgrepo-com" transform="translate(185.416 392.692)">
      <path id="Caminho_9" data-name="Caminho 9" d="M118.855,0a39.942,39.942,0,0,0-39.9,39.9c0,8.86,5.658,23.306,17.3,44.162,8.232,14.751,16.329,27.051,16.67,27.567l5.931,8.99,5.93-8.989c.34-.516,8.438-12.816,16.669-27.567,11.639-20.856,17.3-35.3,17.3-44.162A39.941,39.941,0,0,0,118.855,0Zm0,60.308a20.681,20.681,0,1,1,20.681-20.681A20.681,20.681,0,0,1,118.855,60.308Z" transform="translate(-78.958)" fill="red"/>
    </g>
    <text id="Logo-2" data-name="Logo" transform="translate(166.896 556.692)" font-size="60" font-family="SegoeUI-Bold, Segoe UI" font-weight="700"><tspan x="0" y="0">travel</tspan></text>
  </g>
</svg>
