<svg xmlns="http://www.w3.org/2000/svg" width="46.881" height="44.174" viewBox="0 0 46.881 44.174">
  <g id="Logo" transform="translate(-175.896 -392.692)">
    <g id="suitcase-svgrepo-com" transform="translate(187.462 408.359)">
      <path id="Caminho_7" data-name="Caminho 7" d="M22.637,48.337v-2.57a1.638,1.638,0,0,0-1.645-1.628H14.324a1.638,1.638,0,0,0-1.645,1.628v2.57H0v24.31H35.316V48.337Zm5.317,16.5-4.018-1.751,2.99-6.712,4.018,1.751ZM26.173,54.454,22,63.831l5.505,2.4v4.962H7.814v-21.4H27.5v5.24ZM14.15,45.768a.173.173,0,0,1,.174-.172h6.668a.173.173,0,0,1,.174.172v2.57H14.15v-2.57ZM1.471,49.793H6.342v21.4H1.471Zm32.373,21.4H28.974V66.159l3.911-8.78-3.911-1.7V49.793h4.871Z" transform="translate(0 -44.14)"/>
      <path id="Caminho_8" data-name="Caminho 8" d="M128.972,209.783l7.589,3.279,2.133-4.935-7.589-3.279Zm7.768-.881-.953,2.206-4.86-2.1.953-2.206Z" transform="translate(-116.953 -194.701)"/>
    </g>
    <g id="location-svgrepo-com" transform="translate(175.896 392.692)">
      <path id="Caminho_9" data-name="Caminho 9" d="M93.57,0A14.628,14.628,0,0,0,78.958,14.612c0,3.245,2.072,8.535,6.335,16.174,3.015,5.4,5.98,9.907,6.105,10.1l2.172,3.292,2.172-3.292c.125-.189,3.09-4.694,6.1-10.1,4.263-7.638,6.335-12.929,6.335-16.174A14.628,14.628,0,0,0,93.57,0Zm0,22.087a7.574,7.574,0,1,1,7.574-7.574A7.574,7.574,0,0,1,93.57,22.087Z" transform="translate(-78.958)" fill="red"/>
    </g>
  </g>
</svg>
