<svg xmlns="http://www.w3.org/2000/svg" width="15.407" height="22.098" viewBox="0 0 15.407 22.098">
  <g id="g842" transform="translate(-583.3 52.9)">
    <path id="path835" d="M620.6-4.268A21.459,21.459,0,0,1,622.341-1.7,13.449,13.449,0,0,1,623.3.728c.193.558.376.728.762.728.421,0,.615-.284.762-.728a13.675,13.675,0,0,1,.922-2.378A26.621,26.621,0,0,1,628.326-5.3a22.6,22.6,0,0,0,2.56-3.687,8.978,8.978,0,0,0,.876-3.9A7.759,7.759,0,0,0,630.9-16.5l-2.5.671-1.525,4.005-.375.546-.08.1-.1.125-.171.2-.25.25-1.354,1.1-3.38,1.957Z" transform="translate(-33.056 -32.258)" fill="#34a853"/>
    <path id="path833" d="M589.9,3.764a27.41,27.41,0,0,0,3.493,5l5.724-6.782a3,3,0,0,1-2.264,1.058A2.931,2.931,0,0,1,593.905.1a3.14,3.14,0,0,1,.671-1.9L590.7-.765Z" transform="translate(-5.849 -45.285)" fill="#fbbc04"/>
    <path id="path831" d="M635.609-49.8a7.638,7.638,0,0,1,4.506,3.8l-4.574,5.451a3.181,3.181,0,0,0,.671-1.9,2.965,2.965,0,0,0-2.936-2.936A3.081,3.081,0,0,0,631-44.338v-3.436Z" transform="translate(-42.272 -2.747)" fill="#4285f4"/>
    <path id="path829" d="M599.1-50.146a7.646,7.646,0,0,1,5.883-2.754,7.866,7.866,0,0,1,2.344.353l-4.6,5.462h-3.254Z" transform="translate(-14.002)" fill="#1a73e8"/>
    <path id="path827" d="M584.051-19.986a8.808,8.808,0,0,1-.751-3.641,7.662,7.662,0,0,1,1.809-4.973l3.63,3.061Z" transform="translate(0 -21.535)" fill="#ea4335"/>
  </g>
</svg>
